<svg viewBox="0 0 406 167" fill="none" xmlns="http://www.w3.org/2000/svg">
<path d="M22.68 23.76V51.732H31.752V32.832H94.0681V2.376H0V73.116H71.0641V85.428H0V164.16H31.752V106.704H22.68V155.088H9.07205V94.5H80.136V64.044H9.07205V11.448H84.996V23.76H22.68ZM244.608 84.132V75.06H184.881V105.516H235.533V144.288C221.817 152.928 206.697 157.356 189.525 157.356C147.081 157.356 127.533 121.5 127.533 83.16V81.648C127.533 45.9 148.593 9.07201 188.229 9.07201C203.133 9.07201 214.797 12.096 226.137 18.9L219.873 30.132C210.909 24.624 202.485 21.384 188.877 21.384C158.097 21.384 141.141 52.272 141.141 81.648V83.16C141.141 114.372 156.261 145.044 189.201 145.044C199.677 145.044 209.289 143.316 217.281 139.644L221.925 137.484V117.72H212.853V131.652C207.237 134.136 199.569 135.972 189.201 135.972C160.473 135.972 150.213 107.244 150.213 83.16V81.648C150.213 58.752 162.741 30.456 188.877 30.456C204.321 30.456 211.773 35.208 223.005 43.2L238.017 16.092C223.869 5.50801 208.965 0 188.229 0C143.733 0 118.461 40.284 118.461 81.648V83.16C118.461 128.52 143.301 166.428 189.525 166.428C216.309 166.428 234.237 156.492 244.605 149.148V96.444H193.953V84.132H244.608ZM333.213 2.376H282.237V11.448H333.213C352.329 11.448 368.205 17.604 379.005 29.376C390.453 41.796 396.501 60.372 396.501 83.16C396.501 126.792 371.121 155.088 331.701 155.088H291.309V32.832H333.213C359.025 32.832 373.821 50.652 373.821 83.16C373.821 113.508 357.837 133.704 333.213 133.704H313.989V45.036H304.917V142.776H333.213C362.913 142.776 382.893 118.8 382.893 83.16C382.893 45.9 364.317 23.76 333.321 23.76H282.237V164.16H331.701C375.981 164.16 405.573 131.868 405.573 83.16C405.573 31.212 376.737 2.376 333.213 2.376Z" fill="currentColor"/>
</svg>
